External Loads File
version=1
nRows=31
nColumns=13
Range=5.000000e-03-10 seconds
endheader
time 	forceRightX 	forceRightY 	forceRightZ 	pointRightX 	pointRightY 	pointRightZ 	forceLeftX 	forceLeftY 	forceLeftZ 	pointLeftX 	pointLeftY 	pointLeftZ 		
2.505000 -26.252050 -72.334933 -0.000000 0.156263 0.274140 -0.124271 -74.508985 287.991638 -0.000000 0.449767 0.361100 -0.370607
2.510000 -26.996450 -65.570195 -0.000000 0.155595 0.282860 -0.123572 -80.322972 302.211051 -0.000000 0.451406 0.352254 -0.370573
2.515000 -27.353338 -58.488337 -0.000000 0.154641 0.291513 -0.123640 -85.523721 317.802483 -0.000000 0.452850 0.343189 -0.370403
2.520000 -27.318327 -51.335061 -0.000000 0.154110 0.300187 -0.123823 -90.580102 334.846353 -0.000000 0.453726 0.334210 -0.370351
2.525000 -27.076276 -44.321109 -0.000000 0.153966 0.308854 -0.123901 -95.043265 353.699864 -0.000000 0.454178 0.324910 -0.370320
2.530000 -26.700325 -37.709105 -0.000000 0.154310 0.317722 -0.124010 -99.171212 374.497580 -0.000000 0.454270 0.315744 -0.370274
2.535000 -26.326438 -31.669079 -0.000000 0.155188 0.326577 -0.124061 -102.856736 397.411160 -0.000000 0.454109 0.306425 -0.370955
2.540000 -26.071305 -26.287360 -0.000000 0.156581 0.335479 -0.124036 -106.255609 422.488425 -0.000000 0.453240 0.297228 -0.370174
2.545000 -26.066680 -21.517238 -0.000000 0.158239 0.344344 -0.124147 -109.213271 449.800533 -0.000000 0.451989 0.287999 -0.369965
2.550000 -26.403404 -17.227850 -0.000000 0.160780 0.353082 -0.123837 -111.746321 479.302054 -0.000000 0.450392 0.278884 -0.370074
2.555000 -27.137944 -13.234771 -0.000000 0.162651 0.361788 -0.124786 -114.108371 510.821586 -0.000000 0.448347 0.269880 -0.369974
2.560000 -28.320240 -9.252985 -0.000000 0.165663 0.370477 -0.124935 -115.218728 544.420303 -0.000000 0.445874 0.260973 -0.369940
2.565000 -29.897171 -5.086886 -0.000000 0.168985 0.378972 -0.124979 -115.561665 579.745017 -0.000000 0.442858 0.252314 -0.369660
2.570000 -31.782578 -0.484815 -0.000000 0.172889 0.387344 -0.125033 -113.973817 616.712974 -0.000000 0.439318 0.243679 -0.369248
2.575000 -33.833546 4.689313 -0.000000 0.177440 0.395542 -0.125386 -110.742024 654.844836 -0.000000 0.435536 0.235370 -0.369104
2.580000 -35.913335 10.566295 -0.000000 0.182152 0.403430 -0.125616 -105.817364 693.647958 -0.000000 0.431283 0.227292 -0.368931
2.585000 -37.853772 17.406743 -0.000000 0.187393 0.411284 -0.125719 -96.906892 732.894149 -0.000000 0.425974 0.219413 -0.368332
2.590000 -39.582474 25.234906 -0.000000 0.192889 0.418797 -0.125728 -86.670904 771.617785 -0.000000 0.420846 0.211892 -0.368104
2.595000 -41.035283 34.158568 -0.000000 0.198563 0.426041 -0.125838 -75.858934 809.213960 -0.000000 0.416453 0.204494 -0.369050
2.600000 -41.939465 44.437251 -0.000000 0.204687 0.432979 -0.125808 -60.882152 845.361015 -0.000000 0.410663 0.197618 -0.368860
2.605000 -42.112391 56.024840 -0.000000 0.211516 0.439719 -0.126063 -41.981837 879.113717 -0.000000 0.404504 0.190949 -0.368751
2.610000 -41.592764 68.650183 -0.000000 0.218189 0.446072 -0.126071 -22.026936 909.391606 -0.000000 0.398076 0.184733 -0.368513
2.615000 -40.155663 82.206955 -0.000000 0.225461 0.452098 -0.125581 0.920128 935.366326 -0.000000 0.391333 0.178836 -0.368418
2.620000 -38.026180 96.309748 -0.000000 0.232338 0.457714 -0.126073 23.491648 956.174722 -0.000000 0.384339 0.173421 -0.368193
2.625000 -35.008776 110.764803 -0.000000 0.239818 0.462947 -0.126111 47.731727 971.085408 -0.000000 0.377156 0.168422 -0.368053
2.630000 -31.261299 125.185776 -0.000000 0.247368 0.468249 -0.125920 72.369852 979.532553 -0.000000 0.369765 0.163759 -0.367905
2.635000 -26.991760 139.169964 -0.000000 0.255335 0.472729 -0.125380 96.483406 981.174418 -0.000000 0.362179 0.159654 -0.367777
2.640000 -22.630002 152.300743 -0.000000 0.262972 0.477015 -0.125407 118.090942 976.015037 -0.000000 0.354504 0.155957 -0.367646
2.645000 -18.149377 164.297307 -0.000000 0.270951 0.480880 -0.125387 138.505366 963.890132 -0.000000 0.346686 0.152787 -0.367486
2.650000 -13.959092 174.884468 -0.000000 0.278888 0.484263 -0.125513 156.207802 945.085561 -0.000000 0.338808 0.150017 -0.367367
2.655000 -10.279493 183.925089 -0.000000 0.286689 0.487297 -0.125559 170.936322 919.842559 -0.000000 0.330818 0.147760 -0.367210
